<svg width="200" height="200" viewBox="0 0 200 200" fill="none" xmlns="http://www.w3.org/2000/svg">
<rect x="38.7665" y="35.8619" width="105.075" height="3.17739" fill="#28E218"/>
<path fill-rule="evenodd" clip-rule="evenodd" d="M62.5596 40.8102C62.5596 40.5341 62.3357 40.3102 62.0596 40.3102H46.1697C45.8935 40.3102 45.6697 40.5341 45.6697 40.8102V40.8102C45.6697 41.0864 45.8935 41.3102 46.1697 41.3102H62.0596C62.3357 41.3102 62.5596 41.0864 62.5596 40.8102V40.8102ZM45.6697 43.9876C45.6697 43.7114 45.4458 43.4876 45.1697 43.4876V43.4876C44.8935 43.4876 44.6697 43.7114 44.6697 43.9876V46.936V46.936C44.6697 47.4883 45.1174 47.936 45.6697 47.936V47.936H62.5596V47.936C63.1119 47.936 63.5596 47.4883 63.5596 46.936V46.936V43.9876C63.5596 43.7114 63.3357 43.4876 63.0596 43.4876V43.4876C62.7835 43.4876 62.5596 43.7114 62.5596 43.9876V45.2118C62.5596 46.164 61.7877 46.936 60.8354 46.936H47.3939C46.4416 46.936 45.6697 46.164 45.6697 45.2118V43.9876Z" fill="#11AC04"/>
<path fill-rule="evenodd" clip-rule="evenodd" d="M87.3526 40.8102C87.3526 40.5341 87.1287 40.3102 86.8526 40.3102H70.9626C70.6865 40.3102 70.4626 40.5341 70.4626 40.8102V40.8102C70.4626 41.0864 70.6865 41.3102 70.9626 41.3102H86.8526C87.1287 41.3102 87.3526 41.0864 87.3526 40.8102V40.8102ZM70.4626 43.9876C70.4626 43.7114 70.2388 43.4876 69.9626 43.4876V43.4876C69.6865 43.4876 69.4626 43.7114 69.4626 43.9876V46.936V46.936C69.4626 47.4883 69.9104 47.936 70.4626 47.936V47.936H87.3526V47.936C87.9049 47.936 88.3526 47.4883 88.3526 46.936V46.936V43.9876C88.3526 43.7114 88.1287 43.4876 87.8526 43.4876V43.4876C87.5764 43.4876 87.3526 43.7114 87.3526 43.9876V45.2118C87.3526 46.164 86.5806 46.936 85.6284 46.936H72.1868C71.2346 46.936 70.4626 46.164 70.4626 45.2118V43.9876Z" fill="#11AC04"/>
<path fill-rule="evenodd" clip-rule="evenodd" d="M112.146 40.8102C112.146 40.5341 111.922 40.3102 111.646 40.3102H95.7557C95.4796 40.3102 95.2557 40.5341 95.2557 40.8102V40.8102C95.2557 41.0864 95.4796 41.3102 95.7557 41.3102H111.646C111.922 41.3102 112.146 41.0864 112.146 40.8102V40.8102ZM95.2557 43.9876C95.2557 43.7114 95.0319 43.4876 94.7557 43.4876V43.4876C94.4796 43.4876 94.2557 43.7114 94.2557 43.9876V46.936V46.936C94.2557 47.4883 94.7035 47.936 95.2557 47.936V47.936H112.146V47.936C112.698 47.936 113.146 47.4883 113.146 46.936V46.936V43.9876C113.146 43.7114 112.922 43.4876 112.646 43.4876V43.4876C112.37 43.4876 112.146 43.7114 112.146 43.9876V45.2118C112.146 46.164 111.374 46.936 110.421 46.936H96.9799C96.0277 46.936 95.2557 46.164 95.2557 45.2118V43.9876Z" fill="#11AC04"/>
<path fill-rule="evenodd" clip-rule="evenodd" d="M136.939 40.8102C136.939 40.5341 136.715 40.3102 136.439 40.3102H120.549C120.273 40.3102 120.049 40.5341 120.049 40.8102V40.8102C120.049 41.0864 120.273 41.3102 120.549 41.3102H136.439C136.715 41.3102 136.939 41.0864 136.939 40.8102V40.8102ZM120.049 43.9876C120.049 43.7114 119.825 43.4876 119.549 43.4876V43.4876C119.273 43.4876 119.049 43.7114 119.049 43.9876V46.936V46.936C119.049 47.4883 119.496 47.936 120.049 47.936V47.936H136.939V47.936C137.491 47.936 137.939 47.4883 137.939 46.936V46.936V43.9876C137.939 43.7114 137.715 43.4876 137.439 43.4876V43.4876C137.162 43.4876 136.939 43.7114 136.939 43.9876V45.2118C136.939 46.164 136.167 46.936 135.214 46.936H121.773C120.821 46.936 120.049 46.164 120.049 45.2118V43.9876Z" fill="#11AC04"/>
<rect x="143.842" y="111.484" width="105.075" height="6.35478" transform="rotate(-180 143.842 111.484)" fill="#28E218"/>
<path fill-rule="evenodd" clip-rule="evenodd" d="M120.049 100.181C120.049 100.457 120.273 100.681 120.549 100.681L136.439 100.681C136.715 100.681 136.939 100.457 136.939 100.181V100.181C136.939 99.9045 136.715 99.6807 136.439 99.6807L120.549 99.6807C120.273 99.6807 120.049 99.9045 120.049 100.181V100.181ZM136.939 97.0033C136.939 97.2794 137.162 97.5033 137.439 97.5033V97.5033C137.715 97.5033 137.939 97.2794 137.939 97.0033V94.0549V94.0549C137.939 93.5026 137.491 93.0549 136.939 93.0549V93.0549L120.049 93.0549V93.0549C119.496 93.0549 119.049 93.5026 119.049 94.0549V94.0549V97.0033C119.049 97.2794 119.273 97.5033 119.549 97.5033V97.5033C119.825 97.5033 120.049 97.2794 120.049 97.0033V95.7791C120.049 94.8269 120.821 94.0549 121.773 94.0549L135.214 94.0549C136.167 94.0549 136.939 94.8269 136.939 95.7791V97.0033Z" fill="#11AC04"/>
<path fill-rule="evenodd" clip-rule="evenodd" d="M95.2556 100.181C95.2556 100.457 95.4794 100.681 95.7556 100.681L111.646 100.681C111.922 100.681 112.146 100.457 112.146 100.181V100.181C112.146 99.9045 111.922 99.6807 111.646 99.6807L95.7556 99.6807C95.4794 99.6807 95.2556 99.9045 95.2556 100.181V100.181ZM112.146 97.0033C112.146 97.2794 112.369 97.5033 112.646 97.5033V97.5033C112.922 97.5033 113.146 97.2794 113.146 97.0033V94.0549V94.0549C113.146 93.5026 112.698 93.0549 112.146 93.0549V93.0549L95.2556 93.0549V93.0549C94.7033 93.0549 94.2556 93.5026 94.2556 94.0549V94.0549V97.0033C94.2556 97.2794 94.4794 97.5033 94.7556 97.5033V97.5033C95.0317 97.5033 95.2556 97.2794 95.2556 97.0033V95.7791C95.2556 94.8269 96.0275 94.0549 96.9798 94.0549L110.421 94.0549C111.374 94.0549 112.146 94.8269 112.146 95.7791V97.0033Z" fill="#11AC04"/>
<path fill-rule="evenodd" clip-rule="evenodd" d="M70.4626 100.181C70.4626 100.457 70.6865 100.681 70.9626 100.681L86.8525 100.681C87.1287 100.681 87.3525 100.457 87.3525 100.181V100.181C87.3525 99.9045 87.1287 99.6807 86.8525 99.6807L70.9626 99.6807C70.6865 99.6807 70.4626 99.9045 70.4626 100.181V100.181ZM87.3525 97.0033C87.3525 97.2794 87.5764 97.5033 87.8525 97.5033V97.5033C88.1287 97.5033 88.3525 97.2794 88.3525 97.0033V94.0549V94.0549C88.3525 93.5026 87.9048 93.0549 87.3525 93.0549V93.0549L70.4626 93.0549V93.0549C69.9103 93.0549 69.4626 93.5026 69.4626 94.0549V94.0549V97.0033C69.4626 97.2794 69.6865 97.5033 69.9626 97.5033V97.5033C70.2388 97.5033 70.4626 97.2794 70.4626 97.0033V95.7791C70.4626 94.8269 71.2346 94.0549 72.1868 94.0549L85.6284 94.0549C86.5806 94.0549 87.3525 94.8269 87.3525 95.7791V97.0033Z" fill="#11AC04"/>
<path fill-rule="evenodd" clip-rule="evenodd" d="M45.6696 100.181C45.6696 100.457 45.8935 100.681 46.1696 100.681L62.0596 100.681C62.3357 100.681 62.5596 100.457 62.5596 100.181V100.181C62.5596 99.9045 62.3357 99.6807 62.0596 99.6807L46.1696 99.6807C45.8935 99.6807 45.6696 99.9045 45.6696 100.181V100.181ZM62.5596 97.0033C62.5596 97.2794 62.7834 97.5033 63.0596 97.5033V97.5033C63.3357 97.5033 63.5596 97.2794 63.5596 97.0033V94.0549V94.0549C63.5596 93.5026 63.1119 93.0549 62.5596 93.0549V93.0549L45.6696 93.0549V93.0549C45.1174 93.0549 44.6696 93.5026 44.6696 94.0549V94.0549V97.0033C44.6696 97.2794 44.8935 97.5033 45.1696 97.5033V97.5033C45.4458 97.5033 45.6696 97.2794 45.6696 97.0033V95.7791C45.6696 94.8269 46.4416 94.0549 47.3938 94.0549L60.8354 94.0549C61.7876 94.0549 62.5596 94.8269 62.5596 95.7791V97.0033Z" fill="#11AC04"/>
<path fill-rule="evenodd" clip-rule="evenodd" d="M61.5596 48.936C61.5596 48.3837 61.1119 47.936 60.5596 47.936H47.6697C47.1174 47.936 46.6697 48.3837 46.6697 48.936V48.936C46.6697 49.4883 47.1174 49.936 47.6697 49.936H60.5596C61.1119 49.936 61.5596 49.4883 61.5596 48.936V48.936ZM46.6697 60.3746C46.6697 59.8223 46.222 59.3746 45.6697 59.3746V59.3746C45.1174 59.3746 44.6697 59.8223 44.6697 60.3746V90.4194V90.4194C44.6697 91.524 45.5651 92.4194 46.6697 92.4194V92.4194H61.5596V92.4194C62.6642 92.4194 63.5596 91.524 63.5596 90.4194V90.4194V60.3746C63.5596 59.8223 63.1119 59.3746 62.5596 59.3746V59.3746C62.0073 59.3746 61.5596 59.8223 61.5596 60.3746V82.9745C61.5596 87.0862 58.2264 90.4194 54.1146 90.4194V90.4194C50.0029 90.4194 46.6697 87.0862 46.6697 82.9745V60.3746Z" fill="#11AC04"/>
<path fill-rule="evenodd" clip-rule="evenodd" d="M86.3526 48.936C86.3526 48.3837 85.9049 47.936 85.3526 47.936H72.4626C71.9104 47.936 71.4626 48.3837 71.4626 48.936V48.936C71.4626 49.4883 71.9104 49.936 72.4626 49.936H85.3526C85.9049 49.936 86.3526 49.4883 86.3526 48.936V48.936ZM71.4626 60.3746C71.4626 59.8223 71.0149 59.3746 70.4626 59.3746V59.3746C69.9104 59.3746 69.4626 59.8223 69.4626 60.3746V90.4194V90.4194C69.4626 91.524 70.3581 92.4194 71.4626 92.4194V92.4194H86.3526V92.4194C87.4571 92.4194 88.3526 91.524 88.3526 90.4194V90.4194V60.3746C88.3526 59.8223 87.9049 59.3746 87.3526 59.3746V59.3746C86.8003 59.3746 86.3526 59.8223 86.3526 60.3746V82.9745C86.3526 87.0862 83.0193 90.4194 78.9076 90.4194V90.4194C74.7959 90.4194 71.4626 87.0862 71.4626 82.9745V60.3746Z" fill="#11AC04"/>
<path fill-rule="evenodd" clip-rule="evenodd" d="M111.146 48.936C111.146 48.3837 110.698 47.936 110.146 47.936H97.2557C96.7035 47.936 96.2557 48.3837 96.2557 48.936V48.936C96.2557 49.4883 96.7035 49.936 97.2557 49.936H110.146C110.698 49.936 111.146 49.4883 111.146 48.936V48.936ZM96.2557 60.3746C96.2557 59.8223 95.808 59.3746 95.2557 59.3746V59.3746C94.7035 59.3746 94.2557 59.8223 94.2557 60.3746V90.4194V90.4194C94.2557 91.524 95.1512 92.4194 96.2557 92.4194V92.4194H111.146V92.4194C112.25 92.4194 113.146 91.524 113.146 90.4194V90.4194V60.3746C113.146 59.8223 112.698 59.3746 112.146 59.3746V59.3746C111.593 59.3746 111.146 59.8223 111.146 60.3746V82.9745C111.146 87.0862 107.812 90.4194 103.701 90.4194V90.4194C99.589 90.4194 96.2557 87.0862 96.2557 82.9745V60.3746Z" fill="#11AC04"/>
<path fill-rule="evenodd" clip-rule="evenodd" d="M135.939 48.936C135.939 48.3837 135.491 47.936 134.939 47.936H122.049C121.496 47.936 121.049 48.3837 121.049 48.936V48.936C121.049 49.4883 121.496 49.936 122.049 49.936H134.939C135.491 49.936 135.939 49.4883 135.939 48.936V48.936ZM121.049 60.3746C121.049 59.8223 120.601 59.3746 120.049 59.3746V59.3746C119.496 59.3746 119.049 59.8223 119.049 60.3746V90.4194V90.4194C119.049 91.524 119.944 92.4194 121.049 92.4194V92.4194H135.939V92.4194C137.043 92.4194 137.939 91.524 137.939 90.4194V90.4194V60.3746C137.939 59.8223 137.491 59.3746 136.939 59.3746V59.3746C136.386 59.3746 135.939 59.8223 135.939 60.3746V82.9745C135.939 87.0862 132.605 90.4194 128.494 90.4194V90.4194C124.382 90.4194 121.049 87.0862 121.049 82.9745V60.3746Z" fill="#11AC04"/>
<path fill-rule="evenodd" clip-rule="evenodd" d="M71.3035 0C68.542 0 66.3035 2.23857 66.3035 5V26.9507C66.3035 29.7121 68.542 31.9507 71.3035 31.9507H83.0924C83.5943 34.1819 85.5878 35.8487 87.9706 35.8487H111.501C114.263 35.8487 116.501 33.6102 116.501 30.8487V8.89806C116.501 6.13664 114.263 3.89806 111.501 3.89806H99.7124C99.2105 1.6668 97.217 0 94.8342 0H71.3035ZM99.7124 3.89806H87.9706C85.2092 3.89806 82.9706 6.13664 82.9706 8.89806V30.8487C82.9706 31.2273 83.0127 31.5961 83.0924 31.9507H94.8342C97.5956 31.9507 99.8342 29.7121 99.8342 26.9507V5C99.8342 4.62139 99.7921 4.2526 99.7124 3.89806Z" fill="#F1F0F0"/>
<ellipse cx="144.567" cy="93.5528" rx="16.6671" ry="17.931" fill="#F1F0F0"/>
<path d="M145.884 109.88V83.5599H148.18V109.88H145.884ZM146.752 106.8C145.222 106.8 143.756 106.585 142.356 106.156C140.956 105.708 139.846 105.139 139.024 104.448L140.284 101.62C141.068 102.236 142.039 102.749 143.196 103.16C144.354 103.571 145.539 103.776 146.752 103.776C147.779 103.776 148.61 103.664 149.244 103.44C149.879 103.216 150.346 102.917 150.644 102.544C150.943 102.152 151.092 101.713 151.092 101.228C151.092 100.631 150.878 100.155 150.448 99.7999C150.019 99.4266 149.459 99.1372 148.768 98.9319C148.096 98.7079 147.34 98.5026 146.5 98.3159C145.679 98.1292 144.848 97.9146 144.008 97.6719C143.187 97.4106 142.431 97.0839 141.74 96.6919C141.068 96.2812 140.518 95.7399 140.088 95.0679C139.659 94.3959 139.444 93.5372 139.444 92.4919C139.444 91.4279 139.724 90.4572 140.284 89.5799C140.863 88.6839 141.731 87.9746 142.888 87.4519C144.064 86.9106 145.548 86.6399 147.34 86.6399C148.516 86.6399 149.683 86.7892 150.84 87.0879C151.998 87.3866 153.006 87.8159 153.864 88.3759L152.716 91.2039C151.839 90.6812 150.934 90.2986 150 90.0559C149.067 89.7946 148.171 89.6639 147.312 89.6639C146.304 89.6639 145.483 89.7852 144.848 90.0279C144.232 90.2706 143.775 90.5879 143.476 90.9799C143.196 91.3719 143.056 91.8199 143.056 92.3239C143.056 92.9212 143.262 93.4066 143.672 93.7799C144.102 94.1346 144.652 94.4146 145.324 94.6199C146.015 94.8252 146.78 95.0306 147.62 95.2359C148.46 95.4226 149.291 95.6372 150.112 95.8799C150.952 96.1226 151.708 96.4399 152.38 96.8319C153.071 97.2239 153.622 97.7559 154.032 98.4279C154.462 99.0999 154.676 99.9492 154.676 100.976C154.676 102.021 154.387 102.992 153.808 103.888C153.248 104.765 152.38 105.475 151.204 106.016C150.028 106.539 148.544 106.8 146.752 106.8Z" fill="#D9D9D9"/>
<path d="M49.5026 173.662C48.4359 173.662 47.4492 173.489 46.5426 173.142C45.6492 172.782 44.8692 172.282 44.2026 171.642C43.5492 170.989 43.0359 170.229 42.6626 169.362C42.2892 168.496 42.1026 167.542 42.1026 166.502C42.1026 165.462 42.2892 164.509 42.6626 163.642C43.0359 162.776 43.5559 162.022 44.2226 161.382C44.8892 160.729 45.6692 160.229 46.5626 159.882C47.4692 159.522 48.4559 159.342 49.5226 159.342C50.6026 159.342 51.5959 159.529 52.5026 159.902C53.4226 160.262 54.2026 160.802 54.8426 161.522L53.5426 162.782C53.0092 162.222 52.4092 161.809 51.7426 161.542C51.0759 161.262 50.3626 161.122 49.6026 161.122C48.8159 161.122 48.0826 161.256 47.4026 161.522C46.7359 161.789 46.1559 162.162 45.6626 162.642C45.1692 163.122 44.7826 163.696 44.5026 164.362C44.2359 165.016 44.1026 165.729 44.1026 166.502C44.1026 167.276 44.2359 167.996 44.5026 168.662C44.7826 169.316 45.1692 169.882 45.6626 170.362C46.1559 170.842 46.7359 171.216 47.4026 171.482C48.0826 171.749 48.8159 171.882 49.6026 171.882C50.3626 171.882 51.0759 171.749 51.7426 171.482C52.4092 171.202 53.0092 170.776 53.5426 170.202L54.8426 171.462C54.2026 172.182 53.4226 172.729 52.5026 173.102C51.5959 173.476 50.5959 173.662 49.5026 173.662ZM57.6957 173.502V159.502H63.1557C64.3824 159.502 65.429 159.696 66.2957 160.082C67.1624 160.469 67.829 161.029 68.2957 161.762C68.7624 162.496 68.9957 163.369 68.9957 164.382C68.9957 165.396 68.7624 166.269 68.2957 167.002C67.829 167.722 67.1624 168.276 66.2957 168.662C65.429 169.049 64.3824 169.242 63.1557 169.242H58.7957L59.6957 168.322V173.502H57.6957ZM67.0557 173.502L63.4957 168.422H65.6357L69.2357 173.502H67.0557ZM59.6957 168.522L58.7957 167.542H63.0957C64.3757 167.542 65.3424 167.269 65.9957 166.722C66.6624 166.162 66.9957 165.382 66.9957 164.382C66.9957 163.382 66.6624 162.609 65.9957 162.062C65.3424 161.516 64.3757 161.242 63.0957 161.242H58.7957L59.6957 160.242V168.522ZM74.047 165.542H81.247V167.242H74.047V165.542ZM74.227 171.762H82.387V173.502H72.227V159.502H82.107V161.242H74.227V171.762ZM83.5054 173.502L89.8454 159.502H91.8254L98.1854 173.502H96.0854L90.4254 160.622H91.2254L85.5654 173.502H83.5054ZM86.2054 170.002L86.7454 168.402H94.6254L95.2054 170.002H86.2054ZM102.351 173.502V161.242H97.5507V159.502H109.131V161.242H104.331V173.502H102.351ZM113.129 165.542H120.329V167.242H113.129V165.542ZM113.309 171.762H121.469V173.502H111.309V159.502H121.189V161.242H113.309V171.762ZM127.959 173.502L134.299 159.502H136.279L142.639 173.502H140.539L134.879 160.622H135.679L130.019 173.502H127.959ZM130.659 170.002L131.199 168.402H139.079L139.659 170.002H130.659ZM144.727 173.502V159.502H146.367L155.627 171.002H154.767V159.502H156.767V173.502H155.127L145.867 162.002H146.727V173.502H144.727ZM48.3003 197.502L54.6403 183.502H56.6203L62.9803 197.502H60.8803L55.2203 184.622H56.0203L50.3603 197.502H48.3003ZM51.0003 194.002L51.5403 192.402H59.4203L60.0003 194.002H51.0003ZM71.1334 197.662C70.0668 197.662 69.0801 197.489 68.1734 197.142C67.2801 196.782 66.5001 196.282 65.8334 195.642C65.1801 194.989 64.6668 194.229 64.2934 193.362C63.9201 192.496 63.7334 191.542 63.7334 190.502C63.7334 189.462 63.9201 188.509 64.2934 187.642C64.6668 186.776 65.1868 186.022 65.8534 185.382C66.5201 184.729 67.3001 184.229 68.1934 183.882C69.1001 183.522 70.0868 183.342 71.1534 183.342C72.2334 183.342 73.2268 183.529 74.1334 183.902C75.0534 184.262 75.8334 184.802 76.4734 185.522L75.1734 186.782C74.6401 186.222 74.0401 185.809 73.3734 185.542C72.7068 185.262 71.9934 185.122 71.2334 185.122C70.4468 185.122 69.7134 185.256 69.0334 185.522C68.3668 185.789 67.7868 186.162 67.2934 186.642C66.8001 187.122 66.4134 187.696 66.1334 188.362C65.8668 189.016 65.7334 189.729 65.7334 190.502C65.7334 191.276 65.8668 191.996 66.1334 192.662C66.4134 193.316 66.8001 193.882 67.2934 194.362C67.7868 194.842 68.3668 195.216 69.0334 195.482C69.7134 195.749 70.4468 195.882 71.2334 195.882C71.9934 195.882 72.7068 195.749 73.3734 195.482C74.0401 195.202 74.6401 194.776 75.1734 194.202L76.4734 195.462C75.8334 196.182 75.0534 196.729 74.1334 197.102C73.2268 197.476 72.2268 197.662 71.1334 197.662ZM85.2936 197.662C84.2269 197.662 83.2403 197.489 82.3336 197.142C81.4403 196.782 80.6603 196.282 79.9936 195.642C79.3403 194.989 78.8269 194.229 78.4536 193.362C78.0803 192.496 77.8936 191.542 77.8936 190.502C77.8936 189.462 78.0803 188.509 78.4536 187.642C78.8269 186.776 79.3469 186.022 80.0136 185.382C80.6803 184.729 81.4603 184.229 82.3536 183.882C83.2603 183.522 84.2469 183.342 85.3136 183.342C86.3936 183.342 87.3869 183.529 88.2936 183.902C89.2136 184.262 89.9936 184.802 90.6336 185.522L89.3336 186.782C88.8003 186.222 88.2003 185.809 87.5336 185.542C86.8669 185.262 86.1536 185.122 85.3936 185.122C84.6069 185.122 83.8736 185.256 83.1936 185.522C82.5269 185.789 81.9469 186.162 81.4536 186.642C80.9603 187.122 80.5736 187.696 80.2936 188.362C80.0269 189.016 79.8936 189.729 79.8936 190.502C79.8936 191.276 80.0269 191.996 80.2936 192.662C80.5736 193.316 80.9603 193.882 81.4536 194.362C81.9469 194.842 82.5269 195.216 83.1936 195.482C83.8736 195.749 84.6069 195.882 85.3936 195.882C86.1536 195.882 86.8669 195.749 87.5336 195.482C88.2003 195.202 88.8003 194.776 89.3336 194.202L90.6336 195.462C89.9936 196.182 89.2136 196.729 88.2936 197.102C87.3869 197.476 86.3869 197.662 85.2936 197.662ZM99.5138 197.662C98.4471 197.662 97.4538 197.482 96.5338 197.122C95.6271 196.762 94.8404 196.262 94.1738 195.622C93.5071 194.969 92.9871 194.209 92.6138 193.342C92.2404 192.476 92.0538 191.529 92.0538 190.502C92.0538 189.476 92.2404 188.529 92.6138 187.662C92.9871 186.796 93.5071 186.042 94.1738 185.402C94.8404 184.749 95.6271 184.242 96.5338 183.882C97.4404 183.522 98.4338 183.342 99.5138 183.342C100.58 183.342 101.56 183.522 102.454 183.882C103.36 184.229 104.147 184.729 104.814 185.382C105.494 186.022 106.014 186.776 106.374 187.642C106.747 188.509 106.934 189.462 106.934 190.502C106.934 191.542 106.747 192.496 106.374 193.362C106.014 194.229 105.494 194.989 104.814 195.642C104.147 196.282 103.36 196.782 102.454 197.142C101.56 197.489 100.58 197.662 99.5138 197.662ZM99.5138 195.882C100.287 195.882 101 195.749 101.654 195.482C102.32 195.216 102.894 194.842 103.374 194.362C103.867 193.869 104.247 193.296 104.514 192.642C104.794 191.989 104.934 191.276 104.934 190.502C104.934 189.729 104.794 189.016 104.514 188.362C104.247 187.709 103.867 187.142 103.374 186.662C102.894 186.169 102.32 185.789 101.654 185.522C101 185.256 100.287 185.122 99.5138 185.122C98.7271 185.122 98.0004 185.256 97.3338 185.522C96.6804 185.789 96.1071 186.169 95.6138 186.662C95.1204 187.142 94.7338 187.709 94.4538 188.362C94.1871 189.016 94.0538 189.729 94.0538 190.502C94.0538 191.276 94.1871 191.989 94.4538 192.642C94.7338 193.296 95.1204 193.869 95.6138 194.362C96.1071 194.842 96.6804 195.216 97.3338 195.482C98.0004 195.749 98.7271 195.882 99.5138 195.882ZM115.791 197.662C113.951 197.662 112.504 197.136 111.451 196.082C110.397 195.029 109.871 193.489 109.871 191.462V183.502H111.871V191.382C111.871 192.942 112.211 194.082 112.891 194.802C113.584 195.522 114.557 195.882 115.811 195.882C117.077 195.882 118.051 195.522 118.731 194.802C119.424 194.082 119.771 192.942 119.771 191.382V183.502H121.711V191.462C121.711 193.489 121.184 195.029 120.131 196.082C119.091 197.136 117.644 197.662 115.791 197.662ZM125.811 197.502V183.502H127.451L136.711 195.002H135.851V183.502H137.851V197.502H136.211L126.951 186.002H127.811V197.502H125.811ZM144.821 197.502V185.242H140.021V183.502H151.601V185.242H146.801V197.502H144.821Z" fill="black"/>
</svg>
