<svg width="200" height="200" viewBox="0 0 200 200" fill="none" xmlns="http://www.w3.org/2000/svg">
<path d="M132.019 45.6304V64.124C132.019 74.6174 123.512 83.124 113.019 83.124H86.9811C76.4877 83.124 67.9811 74.6174 67.9811 64.124V45.8748C67.9811 34.4819 81.7932 28.7025 90.1096 36.5865C95.8159 41.9961 104.849 42.0176 110.503 36.5295C118.546 28.7235 132.019 34.4224 132.019 45.6304Z" stroke="#11AC04" stroke-width="2"/>
<path d="M114.267 16.8248C114.267 25.6582 107.79 32.6496 100 32.6496C92.2099 32.6496 85.7332 25.6582 85.7332 16.8248C85.7332 7.99135 92.2099 1 100 1C107.79 1 114.267 7.99135 114.267 16.8248Z" stroke="#11AC04" stroke-width="2"/>
<path d="M49.4245 162.689C48.3578 162.689 47.3711 162.516 46.4645 162.169C45.5711 161.809 44.7911 161.309 44.1245 160.669C43.4711 160.016 42.9578 159.256 42.5845 158.389C42.2111 157.523 42.0245 156.569 42.0245 155.529C42.0245 154.489 42.2111 153.536 42.5845 152.669C42.9578 151.803 43.4778 151.049 44.1445 150.409C44.8111 149.756 45.5911 149.256 46.4845 148.909C47.3911 148.549 48.3778 148.369 49.4445 148.369C50.5245 148.369 51.5178 148.556 52.4245 148.929C53.3445 149.289 54.1245 149.829 54.7645 150.549L53.4645 151.809C52.9311 151.249 52.3311 150.836 51.6645 150.569C50.9978 150.289 50.2845 150.149 49.5245 150.149C48.7378 150.149 48.0045 150.283 47.3245 150.549C46.6578 150.816 46.0778 151.189 45.5845 151.669C45.0911 152.149 44.7045 152.723 44.4245 153.389C44.1578 154.043 44.0245 154.756 44.0245 155.529C44.0245 156.303 44.1578 157.023 44.4245 157.689C44.7045 158.343 45.0911 158.909 45.5845 159.389C46.0778 159.869 46.6578 160.243 47.3245 160.509C48.0045 160.776 48.7378 160.909 49.5245 160.909C50.2845 160.909 50.9978 160.776 51.6645 160.509C52.3311 160.229 52.9311 159.803 53.4645 159.229L54.7645 160.489C54.1245 161.209 53.3445 161.756 52.4245 162.129C51.5178 162.503 50.5178 162.689 49.4245 162.689ZM63.4176 162.689C61.5776 162.689 60.1309 162.163 59.0776 161.109C58.0242 160.056 57.4976 158.516 57.4976 156.489V148.529H59.4976V156.409C59.4976 157.969 59.8376 159.109 60.5176 159.829C61.2109 160.549 62.1842 160.909 63.4376 160.909C64.7042 160.909 65.6776 160.549 66.3576 159.829C67.0509 159.109 67.3976 157.969 67.3976 156.409V148.529H69.3376V156.489C69.3376 158.516 68.8109 160.056 67.7576 161.109C66.7176 162.163 65.2709 162.689 63.4176 162.689ZM77.5179 162.689C76.4512 162.689 75.4312 162.529 74.4579 162.209C73.4846 161.876 72.7179 161.449 72.1579 160.929L72.8979 159.369C73.4312 159.836 74.1112 160.223 74.9379 160.529C75.7646 160.836 76.6246 160.989 77.5179 160.989C78.3312 160.989 78.9912 160.896 79.4979 160.709C80.0046 160.523 80.3779 160.269 80.6179 159.949C80.8579 159.616 80.9779 159.243 80.9779 158.829C80.9779 158.349 80.8179 157.963 80.4979 157.669C80.1912 157.376 79.7846 157.143 79.2779 156.969C78.7846 156.783 78.2379 156.623 77.6379 156.489C77.0379 156.356 76.4312 156.203 75.8179 156.029C75.2179 155.843 74.6646 155.609 74.1579 155.329C73.6646 155.049 73.2646 154.676 72.9579 154.209C72.6512 153.729 72.4979 153.116 72.4979 152.369C72.4979 151.649 72.6846 150.989 73.0579 150.389C73.4446 149.776 74.0312 149.289 74.8179 148.929C75.6179 148.556 76.6312 148.369 77.8579 148.369C78.6712 148.369 79.4779 148.476 80.2779 148.689C81.0779 148.903 81.7712 149.209 82.3579 149.609L81.6979 151.209C81.0979 150.809 80.4646 150.523 79.7979 150.349C79.1312 150.163 78.4846 150.069 77.8579 150.069C77.0712 150.069 76.4246 150.169 75.9179 150.369C75.4112 150.569 75.0379 150.836 74.7979 151.169C74.5712 151.503 74.4579 151.876 74.4579 152.289C74.4579 152.783 74.6112 153.176 74.9179 153.469C75.2379 153.763 75.6446 153.996 76.1379 154.169C76.6446 154.343 77.1979 154.503 77.7979 154.649C78.3979 154.783 78.9979 154.936 79.5979 155.109C80.2112 155.283 80.7646 155.509 81.2579 155.789C81.7646 156.069 82.1712 156.443 82.4779 156.909C82.7846 157.376 82.9379 157.976 82.9379 158.709C82.9379 159.416 82.7446 160.076 82.3579 160.689C81.9712 161.289 81.3712 161.776 80.5579 162.149C79.7579 162.509 78.7446 162.689 77.5179 162.689ZM88.4445 162.529V150.269H83.6445V148.529H95.2245V150.269H90.4245V162.529H88.4445ZM103.527 162.689C102.461 162.689 101.467 162.509 100.547 162.149C99.6408 161.789 98.8541 161.289 98.1874 160.649C97.5208 159.996 97.0008 159.236 96.6274 158.369C96.2541 157.503 96.0674 156.556 96.0674 155.529C96.0674 154.503 96.2541 153.556 96.6274 152.689C97.0008 151.823 97.5208 151.069 98.1874 150.429C98.8541 149.776 99.6408 149.269 100.547 148.909C101.454 148.549 102.447 148.369 103.527 148.369C104.594 148.369 105.574 148.549 106.467 148.909C107.374 149.256 108.161 149.756 108.827 150.409C109.507 151.049 110.027 151.803 110.387 152.669C110.761 153.536 110.947 154.489 110.947 155.529C110.947 156.569 110.761 157.523 110.387 158.389C110.027 159.256 109.507 160.016 108.827 160.669C108.161 161.309 107.374 161.809 106.467 162.169C105.574 162.516 104.594 162.689 103.527 162.689ZM103.527 160.909C104.301 160.909 105.014 160.776 105.667 160.509C106.334 160.243 106.907 159.869 107.387 159.389C107.881 158.896 108.261 158.323 108.527 157.669C108.807 157.016 108.947 156.303 108.947 155.529C108.947 154.756 108.807 154.043 108.527 153.389C108.261 152.736 107.881 152.169 107.387 151.689C106.907 151.196 106.334 150.816 105.667 150.549C105.014 150.283 104.301 150.149 103.527 150.149C102.741 150.149 102.014 150.283 101.347 150.549C100.694 150.816 100.121 151.196 99.6274 151.689C99.1341 152.169 98.7474 152.736 98.4674 153.389C98.2008 154.043 98.0674 154.756 98.0674 155.529C98.0674 156.303 98.2008 157.016 98.4674 157.669C98.7474 158.323 99.1341 158.896 99.6274 159.389C100.121 159.869 100.694 160.243 101.347 160.509C102.014 160.776 102.741 160.909 103.527 160.909ZM114.004 162.529V148.529H115.644L121.924 159.109H121.044L127.244 148.529H128.884L128.904 162.529H126.984L126.964 151.549H127.424L121.904 160.829H120.984L115.424 151.549H115.924V162.529H114.004ZM134.926 154.569H142.126V156.269H134.926V154.569ZM135.106 160.789H143.266V162.529H133.106V148.529H142.986V150.269H135.106V160.789ZM146.504 162.529V148.529H151.964C153.191 148.529 154.238 148.723 155.104 149.109C155.971 149.496 156.638 150.056 157.104 150.789C157.571 151.523 157.804 152.396 157.804 153.409C157.804 154.423 157.571 155.296 157.104 156.029C156.638 156.749 155.971 157.303 155.104 157.689C154.238 158.076 153.191 158.269 151.964 158.269H147.604L148.504 157.349V162.529H146.504ZM155.864 162.529L152.304 157.449H154.444L158.044 162.529H155.864ZM148.504 157.549L147.604 156.569H151.904C153.184 156.569 154.151 156.296 154.804 155.749C155.471 155.189 155.804 154.409 155.804 153.409C155.804 152.409 155.471 151.636 154.804 151.089C154.151 150.543 153.184 150.269 151.904 150.269H147.604L148.504 149.269V157.549ZM62.0101 186.689C60.9434 186.689 59.9234 186.529 58.9501 186.209C57.9767 185.876 57.2101 185.449 56.6501 184.929L57.3901 183.369C57.9234 183.836 58.6034 184.223 59.4301 184.529C60.2567 184.836 61.1167 184.989 62.0101 184.989C62.8234 184.989 63.4834 184.896 63.9901 184.709C64.4967 184.523 64.8701 184.269 65.1101 183.949C65.3501 183.616 65.4701 183.243 65.4701 182.829C65.4701 182.349 65.3101 181.963 64.9901 181.669C64.6834 181.376 64.2767 181.143 63.7701 180.969C63.2767 180.783 62.7301 180.623 62.1301 180.489C61.5301 180.356 60.9234 180.203 60.3101 180.029C59.7101 179.843 59.1567 179.609 58.6501 179.329C58.1567 179.049 57.7567 178.676 57.4501 178.209C57.1434 177.729 56.9901 177.116 56.9901 176.369C56.9901 175.649 57.1767 174.989 57.5501 174.389C57.9367 173.776 58.5234 173.289 59.3101 172.929C60.1101 172.556 61.1234 172.369 62.3501 172.369C63.1634 172.369 63.9701 172.476 64.7701 172.689C65.5701 172.903 66.2634 173.209 66.8501 173.609L66.1901 175.209C65.5901 174.809 64.9567 174.523 64.2901 174.349C63.6234 174.163 62.9767 174.069 62.3501 174.069C61.5634 174.069 60.9167 174.169 60.4101 174.369C59.9034 174.569 59.5301 174.836 59.2901 175.169C59.0634 175.503 58.9501 175.876 58.9501 176.289C58.9501 176.783 59.1034 177.176 59.4101 177.469C59.7301 177.763 60.1367 177.996 60.6301 178.169C61.1367 178.343 61.6901 178.503 62.2901 178.649C62.8901 178.783 63.4901 178.936 64.0901 179.109C64.7034 179.283 65.2567 179.509 65.7501 179.789C66.2567 180.069 66.6634 180.443 66.9701 180.909C67.2767 181.376 67.4301 181.976 67.4301 182.709C67.4301 183.416 67.2367 184.076 66.8501 184.689C66.4634 185.289 65.8634 185.776 65.0501 186.149C64.2501 186.509 63.2367 186.689 62.0101 186.689ZM72.172 178.569H79.372V180.269H72.172V178.569ZM72.352 184.789H80.512V186.529H70.352V172.529H80.232V174.269H72.352V184.789ZM83.7504 186.529V172.529H89.2104C90.4371 172.529 91.4837 172.723 92.3504 173.109C93.2171 173.496 93.8837 174.056 94.3504 174.789C94.8171 175.523 95.0504 176.396 95.0504 177.409C95.0504 178.423 94.8171 179.296 94.3504 180.029C93.8837 180.749 93.2171 181.303 92.3504 181.689C91.4837 182.076 90.4371 182.269 89.2104 182.269H84.8504L85.7504 181.349V186.529H83.7504ZM93.1104 186.529L89.5504 181.449H91.6904L95.2904 186.529H93.1104ZM85.7504 181.549L84.8504 180.569H89.1504C90.4304 180.569 91.3971 180.296 92.0504 179.749C92.7171 179.189 93.0504 178.409 93.0504 177.409C93.0504 176.409 92.7171 175.636 92.0504 175.089C91.3971 174.543 90.4304 174.269 89.1504 174.269H84.8504L85.7504 173.269V181.549ZM102.322 186.529L96.1616 172.529H98.3216L103.982 185.449H102.742L108.442 172.529H110.442L104.302 186.529H102.322ZM112.227 186.529V172.529H114.227V186.529H112.227ZM124.678 186.689C123.612 186.689 122.625 186.516 121.718 186.169C120.825 185.809 120.045 185.309 119.378 184.669C118.725 184.016 118.212 183.256 117.838 182.389C117.465 181.523 117.278 180.569 117.278 179.529C117.278 178.489 117.465 177.536 117.838 176.669C118.212 175.803 118.732 175.049 119.398 174.409C120.065 173.756 120.845 173.256 121.738 172.909C122.645 172.549 123.632 172.369 124.698 172.369C125.778 172.369 126.772 172.556 127.678 172.929C128.598 173.289 129.378 173.829 130.018 174.549L128.718 175.809C128.185 175.249 127.585 174.836 126.918 174.569C126.252 174.289 125.538 174.149 124.778 174.149C123.992 174.149 123.258 174.283 122.578 174.549C121.912 174.816 121.332 175.189 120.838 175.669C120.345 176.149 119.958 176.723 119.678 177.389C119.412 178.043 119.278 178.756 119.278 179.529C119.278 180.303 119.412 181.023 119.678 181.689C119.958 182.343 120.345 182.909 120.838 183.389C121.332 183.869 121.912 184.243 122.578 184.509C123.258 184.776 123.992 184.909 124.778 184.909C125.538 184.909 126.252 184.776 126.918 184.509C127.585 184.229 128.185 183.803 128.718 183.229L130.018 184.489C129.378 185.209 128.598 185.756 127.678 186.129C126.772 186.503 125.772 186.689 124.678 186.689ZM134.691 178.569H141.891V180.269H134.691V178.569ZM134.871 184.789H143.031V186.529H132.871V172.529H142.751V174.269H134.871V184.789Z" fill="black"/>
</svg>
