<svg width="300" height="254" viewBox="0 0 300 254" fill="none" xmlns="http://www.w3.org/2000/svg">
<rect y="81.657" width="257.396" height="7.23485" fill="white"/>
<path fill-rule="evenodd" clip-rule="evenodd" d="M59.734 98.0205C59.734 94.5771 56.9425 91.7856 53.4991 91.7856H15.9605C15.6843 91.7856 15.4605 92.0095 15.4605 92.2856C15.4605 92.5618 15.6843 92.7856 15.9605 92.7856H54.4991C57.3902 92.7856 59.734 95.1294 59.734 98.0205ZM14.9605 99.0205C15.2366 99.0205 15.4604 99.2444 15.4604 99.5205V103.585C15.4604 106.106 17.504 108.149 20.0248 108.149H55.1696C57.6904 108.149 59.734 106.106 59.734 103.585L59.734 99.5205C59.734 99.2444 59.9578 99.0205 60.234 99.0205C60.5101 99.0205 60.734 99.2444 60.734 99.5205L60.734 108.149C60.734 108.702 60.2863 109.149 59.734 109.149H15.4604C14.9082 109.149 14.4604 108.702 14.4604 108.149V92.7856V91.7856C14.4604 91.7856 14.4605 91.7856 14.4605 91.7856C14.4605 91.7856 14.4605 91.7856 14.4605 91.7856V98.0205V98.5205C14.4605 98.7966 14.6843 99.0205 14.9605 99.0205Z" fill="white"/>
<path fill-rule="evenodd" clip-rule="evenodd" d="M120.468 92.2856C120.468 92.0095 120.244 91.7856 119.968 91.7856H76.1946C76.1946 91.7856 76.1946 91.7857 76.1946 91.7857V98.0205C76.1946 98.0205 76.1946 98.0205 76.1946 98.0205C76.1946 98.0205 76.1946 98.0205 76.1946 98.0205V95.4031C76.1946 93.9575 77.3664 92.7856 78.812 92.7856H119.968C120.244 92.7856 120.468 92.5618 120.468 92.2856ZM76.1946 99.0205C76.1946 99.0205 76.1946 99.0205 76.1946 99.0205V103.585C76.1946 106.106 78.2381 108.149 80.759 108.149H115.904C118.425 108.149 120.468 106.106 120.468 103.585L120.468 99.5205C120.468 99.2444 120.692 99.0205 120.968 99.0205C121.244 99.0205 121.468 98.7966 121.468 98.5205V98.0205L121.468 91.7856V92.7856V108.149C121.468 108.702 121.02 109.149 120.468 109.149H76.1946C75.6423 109.149 75.1946 108.702 75.1946 108.149V100.02C75.1946 99.4682 75.6423 99.0205 76.1946 99.0205Z" fill="white"/>
<path fill-rule="evenodd" clip-rule="evenodd" d="M181.202 98.0205C181.202 94.5771 178.411 91.7856 174.967 91.7856H137.429C137.152 91.7856 136.929 92.0095 136.929 92.2856C136.929 92.5618 137.152 92.7856 137.429 92.7856H175.967C178.858 92.7856 181.202 95.1294 181.202 98.0205ZM136.429 99.0205C136.705 99.0205 136.929 99.2444 136.929 99.5205V103.585C136.929 106.106 138.972 108.149 141.493 108.149H176.638C179.159 108.149 181.202 106.106 181.202 103.585L181.202 99.5205C181.202 99.2444 181.426 99.0205 181.702 99.0205C181.978 99.0205 182.202 99.2444 182.202 99.5205L182.202 108.149C182.202 108.702 181.754 109.149 181.202 109.149H136.929C136.376 109.149 135.929 108.702 135.929 108.149V92.7856V91.7857C135.929 91.7856 135.929 91.7856 135.929 91.7856C135.929 91.7856 135.929 91.7856 135.929 91.7857V98.0205V98.5205C135.929 98.7966 136.152 99.0205 136.429 99.0205Z" fill="white"/>
<path fill-rule="evenodd" clip-rule="evenodd" d="M241.936 91.7857C241.936 91.7857 241.936 91.7856 241.936 91.7856H198.162C197.886 91.7856 197.662 92.0095 197.662 92.2856C197.662 92.5618 197.886 92.7856 198.162 92.7856H239.318C240.764 92.7856 241.936 93.9575 241.936 95.4031V98.0205C241.936 98.0205 241.936 98.0205 241.936 98.0205C241.936 98.0205 241.936 98.0205 241.936 98.0205V91.7857ZM197.162 99.0205C197.439 99.0205 197.662 99.2444 197.662 99.5205V103.585C197.662 106.106 199.706 108.149 202.227 108.149H237.371C239.892 108.149 241.936 106.106 241.936 103.585V99.0205C241.936 99.0205 241.936 99.0205 241.936 99.0205C242.488 99.0205 242.936 99.4682 242.936 100.02V108.149C242.936 108.702 242.488 109.149 241.936 109.149H197.662C197.11 109.149 196.662 108.702 196.662 108.149V92.7856V91.7857C196.662 91.7857 196.662 91.7856 196.662 91.7856C196.662 91.7856 196.662 91.7857 196.662 91.7857V98.0205V98.5205C196.662 98.7967 196.886 99.0205 197.162 99.0205Z" fill="white"/>
<rect x="257.396" y="253.846" width="257.396" height="14.4697" transform="rotate(-180 257.396 253.846)" fill="white"/>
<path fill-rule="evenodd" clip-rule="evenodd" d="M197.663 228.748C197.663 229.024 197.886 229.248 198.163 229.248L241.936 229.248C241.936 229.248 241.936 229.248 241.936 229.248V223.013C241.936 225.904 239.592 228.248 236.701 228.248L198.163 228.248C197.886 228.248 197.663 228.472 197.663 228.748ZM241.936 221.513C241.936 221.79 242.16 222.013 242.436 222.013C242.712 222.013 242.936 221.79 242.936 221.513V212.884C242.936 212.332 242.488 211.884 241.936 211.884L197.663 211.884C197.11 211.884 196.663 212.332 196.663 212.884V221.513C196.663 221.79 196.886 222.013 197.163 222.013C197.439 222.013 197.663 221.79 197.663 221.513V217.449C197.663 214.928 199.706 212.884 202.227 212.884L237.372 212.884C239.892 212.884 241.936 214.928 241.936 217.449L241.936 221.513Z" fill="white"/>
<path fill-rule="evenodd" clip-rule="evenodd" d="M136.928 228.748C136.928 229.024 137.152 229.248 137.428 229.248L181.202 229.248C181.202 229.248 181.202 229.248 181.202 229.248V223.013C181.202 223.013 181.202 223.013 181.202 223.013C181.202 223.013 181.202 223.013 181.202 223.013V225.631C181.202 227.076 180.03 228.248 178.585 228.248L137.428 228.248C137.152 228.248 136.928 228.472 136.928 228.748ZM181.202 222.013C181.202 222.013 181.202 222.013 181.202 222.013V217.449C181.202 214.928 179.158 212.884 176.637 212.884L141.493 212.884C138.972 212.884 136.928 214.928 136.928 217.449L136.928 221.513C136.928 221.79 136.705 222.013 136.428 222.013C136.152 222.013 135.928 222.237 135.928 222.513V223.013L135.928 229.248V228.248V212.884C135.928 212.332 136.376 211.884 136.928 211.884L181.202 211.884C181.754 211.884 182.202 212.332 182.202 212.884V221.013C182.202 221.566 181.754 222.013 181.202 222.013Z" fill="white"/>
<path fill-rule="evenodd" clip-rule="evenodd" d="M76.1944 228.748C76.1944 229.024 76.4183 229.248 76.6944 229.248L119.968 229.248C120.244 229.248 120.468 229.024 120.468 228.748C120.468 228.472 120.244 228.248 119.968 228.248L76.6944 228.248C76.4183 228.248 76.1944 228.472 76.1944 228.748ZM120.968 222.013C120.692 222.013 120.468 221.79 120.468 221.513V217.449C120.468 214.928 118.424 212.884 115.903 212.884L80.7589 212.884C78.238 212.884 76.1944 214.928 76.1944 217.449V221.513C76.1944 221.79 75.9706 222.013 75.6944 222.013C75.4183 222.013 75.1944 221.79 75.1944 221.513L75.1944 212.884C75.1944 212.332 75.6422 211.884 76.1944 211.884L120.468 211.884C121.02 211.884 121.468 212.332 121.468 212.884L121.468 228.248V229.248C121.468 229.248 121.468 229.248 121.468 229.248C121.468 229.248 121.468 229.248 121.468 229.248V223.013V222.513C121.468 222.237 121.244 222.013 120.968 222.013Z" fill="white"/>
<path fill-rule="evenodd" clip-rule="evenodd" d="M15.4604 228.748C15.4604 229.024 15.6843 229.248 15.9604 229.248L59.7339 229.248C59.734 229.248 59.734 229.248 59.734 229.248V223.013C59.734 223.013 59.734 223.013 59.734 223.013C59.734 223.013 59.7339 223.013 59.7339 223.013V225.631C59.7339 227.076 58.5621 228.248 57.1166 228.248L15.9604 228.248C15.6843 228.248 15.4604 228.472 15.4604 228.748ZM59.734 222.013C59.734 222.013 59.7339 222.013 59.7339 222.013L59.7339 217.449C59.7339 214.928 57.6903 212.884 55.1694 212.884L20.0249 212.884C17.504 212.884 15.4604 214.928 15.4604 217.449L15.4605 221.513C15.4605 221.79 15.2366 222.013 14.9605 222.013C14.6843 222.013 14.4605 222.237 14.4605 222.513V223.013L14.4604 229.248V228.248L14.4604 212.884C14.4604 212.332 14.9081 211.884 15.4604 211.884L59.7339 211.884C60.2862 211.884 60.7339 212.332 60.7339 212.884V221.013C60.7339 221.566 60.2862 222.013 59.734 222.013Z" fill="white"/>
<path fill-rule="evenodd" clip-rule="evenodd" d="M58.734 119.149C58.734 113.627 54.2568 109.149 48.734 109.149H17.4605C16.9082 109.149 16.4605 109.597 16.4605 110.149C16.4605 110.702 16.9082 111.149 17.4605 111.149H48.734C54.2568 111.149 58.734 115.627 58.734 121.149L58.734 133.195L58.734 119.149ZM15.4605 135.195C16.0127 135.195 16.4605 135.642 16.4605 136.195L16.4605 198.437C16.4604 203.96 20.9376 208.437 26.4605 208.437H48.734C54.2568 208.437 58.734 203.96 58.734 198.437L58.734 136.195C58.734 135.642 59.1817 135.195 59.734 135.195C60.2863 135.195 60.734 135.642 60.734 136.195L60.734 208.437C60.734 209.542 59.8385 210.437 58.734 210.437H16.4604C15.3559 210.437 14.4604 209.542 14.4604 208.437V111.149V109.149C14.4604 109.149 14.4605 109.149 14.4605 109.149C14.4605 109.149 14.4605 109.149 14.4605 109.149V133.195V134.195C14.4605 134.747 14.9082 135.195 15.4605 135.195Z" fill="white"/>
<path fill-rule="evenodd" clip-rule="evenodd" d="M119.468 110.149C119.468 109.597 119.02 109.149 118.468 109.149H77.1946C77.1946 109.149 77.1946 109.149 77.1946 109.149V133.195L77.1946 121.149C77.1946 115.627 81.6717 111.149 87.1946 111.149H118.468C119.02 111.149 119.468 110.702 119.468 110.149ZM77.1946 136.195C77.1946 135.642 76.7469 135.195 76.1946 135.195C75.6423 135.195 75.1946 135.642 75.1946 136.195L75.1946 208.437C75.1946 209.542 76.09 210.437 77.1946 210.437H119.468C120.573 210.437 121.468 209.542 121.468 208.437V111.149V109.149L121.468 133.195V134.195C121.468 134.747 121.02 135.195 120.468 135.195C119.916 135.195 119.468 135.642 119.468 136.195L119.468 198.437C119.468 203.96 114.991 208.437 109.468 208.437H87.1946C81.6717 208.437 77.1946 203.96 77.1946 198.437L77.1946 136.195Z" fill="white"/>
<path fill-rule="evenodd" clip-rule="evenodd" d="M180.202 119.149C180.202 113.627 175.725 109.149 170.202 109.149H138.929C138.376 109.149 137.929 109.597 137.929 110.149C137.929 110.702 138.376 111.149 138.929 111.149H170.202C175.725 111.149 180.202 115.627 180.202 121.149L180.202 133.195L180.202 119.149ZM136.929 135.195C137.481 135.195 137.929 135.642 137.929 136.195V198.437C137.929 203.96 142.406 208.437 147.929 208.437H170.202C175.725 208.437 180.202 203.96 180.202 198.437L180.202 136.195C180.202 135.642 180.65 135.195 181.202 135.195C181.754 135.195 182.202 135.642 182.202 136.195L182.202 208.437C182.202 209.542 181.307 210.437 180.202 210.437H137.929C136.824 210.437 135.929 209.542 135.929 208.437V111.149V109.149C135.929 109.149 135.929 109.149 135.929 109.149C135.929 109.149 135.929 109.149 135.929 109.149V133.195V134.195C135.929 134.747 136.376 135.195 136.929 135.195Z" fill="white"/>
<path fill-rule="evenodd" clip-rule="evenodd" d="M240.936 109.149C240.936 109.149 240.936 109.149 240.936 109.149H199.662C199.11 109.149 198.662 109.597 198.662 110.149C198.662 110.702 199.11 111.149 199.662 111.149H230.936C236.459 111.149 240.936 115.627 240.936 121.149V133.195C240.936 133.195 240.936 133.195 240.936 133.195C240.936 133.195 240.936 133.195 240.936 133.195V109.149ZM197.662 135.195C198.215 135.195 198.662 135.642 198.662 136.195V198.437C198.662 203.96 203.14 208.437 208.662 208.437H230.936C236.459 208.437 240.936 203.96 240.936 198.437V135.195C240.936 135.195 240.936 135.195 240.936 135.195C242.04 135.195 242.936 136.09 242.936 137.195V208.437C242.936 209.542 242.04 210.437 240.936 210.437H198.662C197.558 210.437 196.662 209.542 196.662 208.437V111.149V109.149C196.662 109.149 196.662 109.149 196.662 109.149C196.662 109.149 196.662 109.149 196.662 109.149V133.195V134.195C196.662 134.747 197.11 135.195 197.662 135.195Z" fill="white"/>
<path fill-rule="evenodd" clip-rule="evenodd" d="M72.4555 0C69.6941 0 67.4555 2.23858 67.4555 5V67.751C67.4555 70.5124 69.6941 72.751 72.4555 72.751H108.284V76.6267C108.284 79.3881 110.523 81.6267 113.284 81.6267H185.422C188.184 81.6267 190.422 79.3881 190.422 76.6267V13.8757C190.422 11.1143 188.184 8.87574 185.422 8.87574H149.594V5C149.594 2.23858 147.355 0 144.594 0H72.4555ZM149.594 8.87574H113.284C110.523 8.87574 108.284 11.1143 108.284 13.8757V72.751H144.594C147.355 72.751 149.594 70.5124 149.594 67.751V8.87574Z" fill="#F1F0F0"/>
<circle cx="258.828" cy="213.018" r="40.8284" fill="#F1F0F0"/>
</svg>
