<svg width="300" height="306" viewBox="0 0 300 306" fill="none" xmlns="http://www.w3.org/2000/svg">
<path d="M151.299 5.25L150 3L148.701 5.25L18.7972 230.25L17.4981 232.5H20.0962H279.904H282.502L281.203 230.25L151.299 5.25Z" stroke="white" stroke-width="3"/>
<path d="M142.5 166.5L138.8 122H161.4L157.6 166.5H142.5ZM150.1 192.9C146.767 192.9 144.033 191.867 141.9 189.8C139.767 187.733 138.7 185.267 138.7 182.4C138.7 179.467 139.767 177.033 141.9 175.1C144.033 173.1 146.767 172.1 150.1 172.1C153.433 172.1 156.133 173.1 158.2 175.1C160.333 177.033 161.4 179.467 161.4 182.4C161.4 185.267 160.333 187.733 158.2 189.8C156.133 191.867 153.433 192.9 150.1 192.9Z" fill="white"/>
</svg>
