<svg width="200" height="200" viewBox="0 0 200 200" fill="none" xmlns="http://www.w3.org/2000/svg">
<rect x="22.8188" y="49.1797" width="154.362" height="4.35896" fill="#28E218"/>
<path fill-rule="evenodd" clip-rule="evenodd" d="M58.2414 55.7823C58.2414 55.5061 58.0175 55.2823 57.7414 55.2823H32.9908C32.7147 55.2823 32.4908 55.5061 32.4908 55.7823V55.7823C32.4908 56.0584 32.7147 56.2823 32.9908 56.2823H57.7414C58.0175 56.2823 58.2414 56.0584 58.2414 55.7823V55.7823ZM32.4908 60.1412C32.4908 59.8651 32.267 59.6412 31.9908 59.6412V59.6412C31.7147 59.6412 31.4908 59.8651 31.4908 60.1412V64.7438V64.7438C31.4908 65.2961 31.9385 65.7438 32.4908 65.7438V65.7438H58.2414V65.7438C58.7937 65.7438 59.2414 65.2961 59.2414 64.7438V64.7438V60.1412C59.2414 59.8651 59.0175 59.6412 58.7414 59.6412V59.6412C58.4652 59.6412 58.2414 59.8651 58.2414 60.1412V62.1925C58.2414 63.6015 57.0991 64.7438 55.6901 64.7438H35.0421C33.6331 64.7438 32.4908 63.6015 32.4908 62.1925V60.1412Z" fill="#11AC04"/>
<path fill-rule="evenodd" clip-rule="evenodd" d="M94.664 55.7823C94.664 55.5061 94.4401 55.2823 94.164 55.2823H68.9135V55.2823C68.9135 55.2823 68.9134 55.2823 68.9134 55.2823V58.6412C68.9134 58.6412 68.9134 58.6412 68.9135 58.6412V58.6412C68.9135 58.6412 68.9135 58.6412 68.9135 58.6412V57.4617C68.9135 56.8103 69.4415 56.2823 70.093 56.2823H94.164C94.4401 56.2823 94.664 56.0584 94.664 55.7823V55.7823ZM68.9134 59.6412C68.9135 59.6412 68.9135 59.6412 68.9135 59.6413V62.1925C68.9135 63.6015 70.0557 64.7438 71.4647 64.7438H92.1127C93.5218 64.7438 94.664 63.6015 94.664 62.1925V60.1412C94.664 59.8651 94.8879 59.6412 95.164 59.6412V59.6412C95.4401 59.6412 95.664 59.4174 95.664 59.1412V58.6412V55.2823C95.664 55.2823 95.664 55.2823 95.664 55.2823V55.2823C95.664 55.2823 95.664 55.2823 95.664 55.2823V56.2823V64.7438V64.7438C95.664 65.2961 95.2163 65.7438 94.664 65.7438V65.7438H68.9135V65.7438C68.3612 65.7438 67.9135 65.2961 67.9135 64.7438V64.7438V60.6412C67.9135 60.0889 68.3612 59.6412 68.9134 59.6412V59.6412V59.6412Z" fill="#11AC04"/>
<path fill-rule="evenodd" clip-rule="evenodd" d="M131.087 55.7823C131.087 55.5061 130.863 55.2823 130.587 55.2823H105.836C105.56 55.2823 105.336 55.5061 105.336 55.7823V55.7823C105.336 56.0584 105.56 56.2823 105.836 56.2823H130.587C130.863 56.2823 131.087 56.0584 131.087 55.7823V55.7823ZM105.336 60.1412C105.336 59.8651 105.112 59.6412 104.836 59.6412V59.6412C104.56 59.6412 104.336 59.8651 104.336 60.1412V64.7438V64.7438C104.336 65.2961 104.784 65.7438 105.336 65.7438V65.7438H131.087V65.7438C131.639 65.7438 132.087 65.2961 132.087 64.7438V64.7438V60.1412C132.087 59.8651 131.863 59.6412 131.587 59.6412V59.6412C131.31 59.6412 131.087 59.8651 131.087 60.1412V62.1925C131.087 63.6015 129.944 64.7438 128.535 64.7438H107.887C106.478 64.7438 105.336 63.6015 105.336 62.1925V60.1412Z" fill="#11AC04"/>
<path fill-rule="evenodd" clip-rule="evenodd" d="M167.509 55.7823C167.509 55.5061 167.285 55.2823 167.009 55.2823H141.759V55.2823C141.759 55.2823 141.759 55.2823 141.759 55.2823V58.6412C141.759 58.6412 141.759 58.6412 141.759 58.6412V58.6412C141.759 58.6412 141.759 58.6412 141.759 58.6412V57.4617C141.759 56.8103 142.287 56.2823 142.938 56.2823H167.009C167.285 56.2823 167.509 56.0584 167.509 55.7823V55.7823ZM141.759 59.6412C141.759 59.6412 141.759 59.6412 141.759 59.6413V62.1925C141.759 63.6015 142.901 64.7438 144.31 64.7438H164.958C166.367 64.7438 167.509 63.6015 167.509 62.1925V60.1412C167.509 59.8651 167.733 59.6412 168.009 59.6412V59.6412C168.285 59.6412 168.509 59.4174 168.509 59.1412V58.6412V55.2823C168.509 55.2823 168.509 55.2823 168.509 55.2823V55.2823C168.509 55.2823 168.509 55.2823 168.509 55.2823V56.2823V64.7438V64.7438C168.509 65.2961 168.061 65.7438 167.509 65.7438V65.7438H141.759V65.7438C141.206 65.7438 140.759 65.2961 140.759 64.7438V64.7438V60.6412C140.759 60.0889 141.206 59.6412 141.759 59.6412V59.6412V59.6412Z" fill="#11AC04"/>
<rect x="177.181" y="152.923" width="154.362" height="8.71793" transform="rotate(-180 177.181 152.923)" fill="#28E218"/>
<path fill-rule="evenodd" clip-rule="evenodd" d="M141.759 134.744C141.759 136.599 143.263 138.103 145.118 138.103H167.009C167.285 138.103 167.509 137.879 167.509 137.603V137.603C167.509 137.326 167.285 137.103 167.009 137.103H144.118C142.815 137.103 141.759 136.046 141.759 134.744V134.744V134.744ZM168.009 133.744C167.733 133.744 167.509 133.52 167.509 133.244V131.192C167.509 129.783 166.367 128.641 164.958 128.641H144.31C142.901 128.641 141.759 129.783 141.759 131.192L141.759 133.244C141.759 133.52 141.535 133.744 141.259 133.744V133.744C140.983 133.744 140.759 133.52 140.759 133.244L140.759 128.641V128.641C140.759 128.089 141.206 127.641 141.759 127.641V127.641L167.509 127.641V127.641C168.061 127.641 168.509 128.089 168.509 128.641V128.641V137.103V138.103C168.509 138.103 168.509 138.103 168.509 138.103V138.103C168.509 138.103 168.509 138.103 168.509 138.103V134.744V134.244C168.509 133.967 168.285 133.744 168.009 133.744V133.744Z" fill="#11AC04"/>
<path fill-rule="evenodd" clip-rule="evenodd" d="M105.336 137.603C105.336 137.879 105.56 138.103 105.836 138.103H131.087V138.103C131.087 138.103 131.087 138.103 131.087 138.103V134.744C131.087 134.744 131.087 134.744 131.087 134.744V134.744C131.087 134.744 131.087 134.744 131.087 134.744V135.923C131.087 136.575 130.558 137.103 129.907 137.103H105.836C105.56 137.103 105.336 137.326 105.336 137.603V137.603ZM131.087 133.744C131.087 133.744 131.087 133.744 131.087 133.744V131.192C131.087 129.783 129.944 128.641 128.535 128.641H107.887C106.478 128.641 105.336 129.783 105.336 131.192V133.244C105.336 133.52 105.112 133.744 104.836 133.744V133.744C104.56 133.744 104.336 133.967 104.336 134.244V134.744V138.103C104.336 138.103 104.336 138.103 104.336 138.103V138.103C104.336 138.103 104.336 138.103 104.336 138.103V137.103V128.641V128.641C104.336 128.089 104.784 127.641 105.336 127.641V127.641L131.087 127.641V127.641C131.639 127.641 132.087 128.089 132.087 128.641V128.641V132.744C132.087 133.296 131.639 133.744 131.087 133.744V133.744V133.744Z" fill="#11AC04"/>
<path fill-rule="evenodd" clip-rule="evenodd" d="M68.9135 137.603C68.9135 137.879 69.1373 138.103 69.4135 138.103L94.164 138.103C94.4401 138.103 94.664 137.879 94.664 137.603V137.603C94.664 137.326 94.4401 137.103 94.164 137.103L69.4135 137.103C69.1373 137.103 68.9135 137.326 68.9135 137.603V137.603ZM94.664 133.244C94.664 133.52 94.8879 133.744 95.164 133.744V133.744C95.4401 133.744 95.664 133.52 95.664 133.244L95.664 128.641V128.641C95.664 128.089 95.2163 127.641 94.664 127.641V127.641L68.9135 127.641V127.641C68.3612 127.641 67.9135 128.089 67.9135 128.641V128.641V133.244C67.9135 133.52 68.1373 133.744 68.4135 133.744V133.744C68.6896 133.744 68.9135 133.52 68.9135 133.244V131.192C68.9135 129.783 70.0557 128.641 71.4647 128.641L92.1127 128.641C93.5218 128.641 94.664 129.783 94.664 131.192V133.244Z" fill="#11AC04"/>
<path fill-rule="evenodd" clip-rule="evenodd" d="M32.4908 137.603C32.4908 137.879 32.7147 138.103 32.9908 138.103H58.2414V138.103C58.2414 138.103 58.2414 138.103 58.2414 138.103V134.744C58.2414 134.744 58.2414 134.744 58.2414 134.744V134.744C58.2414 134.744 58.2414 134.744 58.2414 134.744V135.923C58.2414 136.575 57.7133 137.103 57.0619 137.103H32.9908C32.7147 137.103 32.4908 137.326 32.4908 137.603V137.603ZM58.2414 133.744C58.2414 133.744 58.2414 133.744 58.2414 133.744V131.192C58.2414 129.783 57.0991 128.641 55.6901 128.641H35.0421C33.6331 128.641 32.4908 129.783 32.4908 131.192V133.244C32.4908 133.52 32.267 133.744 31.9908 133.744V133.744C31.7147 133.744 31.4908 133.967 31.4908 134.244L31.4908 134.744V138.103C31.4908 138.103 31.4908 138.103 31.4908 138.103V138.103C31.4908 138.103 31.4908 138.103 31.4908 138.103V137.103L31.4908 128.641V128.641C31.4908 128.089 31.9385 127.641 32.4908 127.641V127.641L58.2414 127.641V127.641C58.7936 127.641 59.2414 128.089 59.2414 128.641V128.641L59.2414 132.744C59.2414 133.296 58.7937 133.744 58.2414 133.744V133.744V133.744Z" fill="#11AC04"/>
<path fill-rule="evenodd" clip-rule="evenodd" d="M57.2414 66.7437C57.2414 66.1915 56.7937 65.7437 56.2414 65.7437H34.4908C33.9385 65.7437 33.4908 66.1915 33.4908 66.7437V66.7437C33.4908 67.296 33.9385 67.7437 34.4908 67.7437H56.2414C56.7937 67.7437 57.2414 67.296 57.2414 66.7437V66.7437ZM33.4908 82.436C33.4908 81.8837 33.0431 81.436 32.4908 81.436V81.436C31.9385 81.436 31.4908 81.8837 31.4908 82.436V124.769V124.769C31.4908 125.874 32.3863 126.769 33.4908 126.769V126.769H57.2414V126.769C58.3459 126.769 59.2414 125.874 59.2414 124.769V124.769V82.436C59.2414 81.8837 58.7937 81.436 58.2414 81.436V81.436C57.6891 81.436 57.2414 81.8837 57.2414 82.436V114.769C57.2414 120.292 52.7642 124.769 47.2414 124.769H43.4908C37.968 124.769 33.4908 120.292 33.4908 114.769V82.436Z" fill="#11AC04"/>
<path fill-rule="evenodd" clip-rule="evenodd" d="M93.664 66.7437C93.664 66.1915 93.2163 65.7437 92.664 65.7437H69.9135V65.7437C69.9135 65.7437 69.9134 65.7438 69.9134 65.7438V79.436C69.9134 79.436 69.9134 79.436 69.9135 79.436V79.436C69.9135 79.436 69.9135 79.436 69.9135 79.436V73.5899C69.9135 70.3612 72.5309 67.7437 75.7596 67.7437H92.664C93.2163 67.7437 93.664 67.296 93.664 66.7437V66.7437ZM69.9134 81.436C69.9135 81.436 69.9135 81.436 69.9135 81.4361V114.769C69.9135 120.292 74.3906 124.769 79.9135 124.769H83.664C89.1869 124.769 93.664 120.292 93.664 114.769V82.436C93.664 81.8837 94.1117 81.436 94.664 81.436V81.436C95.2163 81.436 95.664 80.9883 95.664 80.436V79.436V65.7438C95.664 65.7438 95.664 65.7437 95.664 65.7437V65.7437C95.664 65.7437 95.664 65.7438 95.664 65.7438V67.7437V124.769V124.769C95.664 125.874 94.7686 126.769 93.664 126.769V126.769H69.9135V126.769C68.8089 126.769 67.9135 125.874 67.9135 124.769V124.769V83.436C67.9135 82.3314 68.8089 81.436 69.9134 81.436V81.436V81.436Z" fill="#11AC04"/>
<path fill-rule="evenodd" clip-rule="evenodd" d="M130.087 66.7437C130.087 66.1915 129.639 65.7437 129.087 65.7437H107.336C106.784 65.7437 106.336 66.1915 106.336 66.7437V66.7437C106.336 67.296 106.784 67.7437 107.336 67.7437H129.087C129.639 67.7437 130.087 67.296 130.087 66.7437V66.7437ZM106.336 82.436C106.336 81.8837 105.888 81.436 105.336 81.436V81.436C104.784 81.436 104.336 81.8837 104.336 82.436V124.769V124.769C104.336 125.874 105.231 126.769 106.336 126.769V126.769H130.087V126.769C131.191 126.769 132.087 125.874 132.087 124.769V124.769V82.436C132.087 81.8837 131.639 81.436 131.087 81.436V81.436C130.534 81.436 130.087 81.8837 130.087 82.436V114.769C130.087 120.292 125.609 124.769 120.087 124.769H116.336C110.813 124.769 106.336 120.292 106.336 114.769V82.436Z" fill="#11AC04"/>
<path fill-rule="evenodd" clip-rule="evenodd" d="M166.509 66.7437C166.509 66.1915 166.061 65.7437 165.509 65.7437H142.759V65.7437C142.759 65.7437 142.759 65.7438 142.759 65.7438V79.436C142.759 79.436 142.759 79.436 142.759 79.436V79.436C142.759 79.436 142.759 79.436 142.759 79.436V73.5899C142.759 70.3612 145.376 67.7437 148.605 67.7437H165.509C166.061 67.7437 166.509 67.296 166.509 66.7437V66.7437ZM142.759 81.436C142.759 81.436 142.759 81.436 142.759 81.4361V114.769C142.759 120.292 147.236 124.769 152.759 124.769H156.509C162.032 124.769 166.509 120.292 166.509 114.769V82.436C166.509 81.8837 166.957 81.436 167.509 81.436V81.436C168.061 81.436 168.509 80.9883 168.509 80.436V79.436V65.7438C168.509 65.7438 168.509 65.7437 168.509 65.7437V65.7437C168.509 65.7437 168.509 65.7438 168.509 65.7438V67.7437V124.769V124.769C168.509 125.874 167.614 126.769 166.509 126.769V126.769H142.759V126.769C141.654 126.769 140.759 125.874 140.759 124.769V124.769V83.436C140.759 82.3314 141.654 81.436 142.759 81.436V81.436V81.436Z" fill="#11AC04"/>
<path fill-rule="evenodd" clip-rule="evenodd" d="M68.2724 0C65.511 0 63.2724 2.23857 63.2724 5V38.8321C63.2724 41.5936 65.511 43.8321 68.2724 43.8321H87.7575V44.1797C87.7575 46.9412 89.9961 49.1797 92.7575 49.1797H132.016C134.778 49.1797 137.016 46.9412 137.016 44.1797V10.3476C137.016 7.58617 134.778 5.34759 132.016 5.34759H112.531V5C112.531 2.23858 110.293 0 107.531 0H68.2724ZM112.531 5.34759H92.7575C89.9961 5.34759 87.7575 7.58617 87.7575 10.3476V43.8321H107.531C110.293 43.8321 112.531 41.5936 112.531 38.8321V5.34759Z" fill="#F1F0F0"/>
<path d="M31.3161 193.332L26.6361 179.332H28.6961L32.9961 192.252H31.9561L36.4161 179.332H38.2561L42.6161 192.252H41.6161L45.9761 179.332H47.8761L43.1961 193.332H41.0961L37.0161 181.352H37.5561L33.4561 193.332H31.3161ZM47.7534 193.332L54.0934 179.332H56.0734L62.4334 193.332H60.3334L54.6734 180.452H55.4734L49.8134 193.332H47.7534ZM50.4534 189.832L50.9934 188.232H58.8734L59.4534 189.832H50.4534ZM67.062 193.332V187.972L67.522 189.212L61.502 179.332H63.642L68.702 187.672H67.542L72.622 179.332H74.602L68.602 189.212L69.042 187.972V193.332H67.062ZM84.7823 193.332V181.072H79.9823V179.332H91.5623V181.072H86.7623V193.332H84.7823ZM99.8653 193.492C98.7986 193.492 97.8053 193.312 96.8853 192.952C95.9786 192.592 95.192 192.092 94.5253 191.452C93.8586 190.798 93.3386 190.038 92.9653 189.172C92.592 188.305 92.4053 187.358 92.4053 186.332C92.4053 185.305 92.592 184.358 92.9653 183.492C93.3386 182.625 93.8586 181.872 94.5253 181.232C95.192 180.578 95.9786 180.072 96.8853 179.712C97.792 179.352 98.7853 179.172 99.8653 179.172C100.932 179.172 101.912 179.352 102.805 179.712C103.712 180.058 104.499 180.558 105.165 181.212C105.845 181.852 106.365 182.605 106.725 183.472C107.099 184.338 107.285 185.292 107.285 186.332C107.285 187.372 107.099 188.325 106.725 189.192C106.365 190.058 105.845 190.818 105.165 191.472C104.499 192.112 103.712 192.612 102.805 192.972C101.912 193.318 100.932 193.492 99.8653 193.492ZM99.8653 191.712C100.639 191.712 101.352 191.578 102.005 191.312C102.672 191.045 103.245 190.672 103.725 190.192C104.219 189.698 104.599 189.125 104.865 188.472C105.145 187.818 105.285 187.105 105.285 186.332C105.285 185.558 105.145 184.845 104.865 184.192C104.599 183.538 104.219 182.972 103.725 182.492C103.245 181.998 102.672 181.618 102.005 181.352C101.352 181.085 100.639 180.952 99.8653 180.952C99.0786 180.952 98.352 181.085 97.6853 181.352C97.032 181.618 96.4586 181.998 95.9653 182.492C95.472 182.972 95.0853 183.538 94.8053 184.192C94.5386 184.845 94.4053 185.558 94.4053 186.332C94.4053 187.105 94.5386 187.818 94.8053 188.472C95.0853 189.125 95.472 189.698 95.9653 190.192C96.4586 190.672 97.032 191.045 97.6853 191.312C98.352 191.578 99.0786 191.712 99.8653 191.712ZM115.713 193.332V179.332H121.993C123.607 179.332 124.847 179.658 125.713 180.312C126.58 180.952 127.013 181.832 127.013 182.952C127.013 183.712 126.84 184.352 126.493 184.872C126.16 185.392 125.707 185.792 125.133 186.072C124.56 186.352 123.94 186.492 123.273 186.492L123.633 185.892C124.433 185.892 125.14 186.032 125.753 186.312C126.367 186.592 126.853 187.005 127.213 187.552C127.573 188.085 127.753 188.752 127.753 189.552C127.753 190.752 127.3 191.685 126.393 192.352C125.5 193.005 124.167 193.332 122.393 193.332H115.713ZM117.713 191.712H122.313C123.42 191.712 124.267 191.525 124.853 191.152C125.44 190.778 125.733 190.192 125.733 189.392C125.733 188.578 125.44 187.985 124.853 187.612C124.267 187.238 123.42 187.052 122.313 187.052H117.533V185.432H121.813C122.827 185.432 123.613 185.245 124.173 184.872C124.733 184.498 125.013 183.938 125.013 183.192C125.013 182.445 124.733 181.885 124.173 181.512C123.613 181.138 122.827 180.952 121.813 180.952H117.713V191.712ZM128.73 193.332L135.07 179.332H137.05L143.41 193.332H141.31L135.65 180.452H136.45L130.79 193.332H128.73ZM131.43 189.832L131.97 188.232H139.85L140.43 189.832H131.43ZM145.498 193.332V179.332H147.138L156.398 190.832H155.538V179.332H157.538V193.332H155.898L146.638 181.832H147.498V193.332H145.498ZM163.489 189.952L163.389 187.512L171.329 179.332H173.609L167.469 185.812L166.349 187.052L163.489 189.952ZM161.729 193.332V179.332H163.729V193.332H161.729ZM171.649 193.332L165.909 186.652L167.249 185.172L173.989 193.332H171.649Z" fill="black"/>
</svg>
